<svg width="183.962906" height="21.046997" viewBox="0 0 183.963 21.047" fill="none" xmlns="http://www.w3.org/2000/svg" xmlns:xlink="http://www.w3.org/1999/xlink">
	<desc>
			Created with Pixso.
	</desc>
	<defs/>
	<path d="M44.19 0.65C43.76 0.24 43.18 0 42.57 0L36.95 0C36.64 -0.01 36.34 0.05 36.06 0.16C35.78 0.27 35.53 0.44 35.31 0.65C35.1 0.85 34.93 1.1 34.81 1.37C34.7 1.64 34.64 1.93 34.64 2.22L34.64 2.22L34.64 18.82C34.64 19.4 34.89 19.97 35.32 20.38C35.75 20.8 36.34 21.04 36.95 21.04L42.57 21.04C43.17 21.03 43.76 20.79 44.19 20.38C44.62 19.96 44.86 19.4 44.87 18.82L44.87 2.22C44.87 1.63 44.62 1.07 44.19 0.65ZM27.95 9.37C28.09 9.08 28.16 8.76 28.16 8.44L28.16 8.43L28.16 2.22C28.16 1.63 27.91 1.07 27.48 0.65C27.05 0.24 26.47 0 25.86 0L17.94 0L17.94 21.04L25.86 21.04C26.47 21.03 27.05 20.79 27.48 20.37C27.91 19.96 28.16 19.4 28.17 18.81L28.17 11.93C28.16 11.59 28.08 11.26 27.94 10.95C27.79 10.64 27.59 10.36 27.33 10.13C27.59 9.92 27.8 9.66 27.95 9.37ZM56.54 12.29L58.06 21.04L61.79 21.04L60.23 12.08C60.63 11.91 60.96 11.63 61.2 11.28C61.43 10.93 61.56 10.52 61.56 10.1L61.56 2.22L61.56 2.21C61.56 1.92 61.51 1.64 61.39 1.37C61.28 1.1 61.11 0.86 60.9 0.65C60.69 0.45 60.44 0.28 60.16 0.17C59.88 0.06 59.59 0 59.28 0L51.37 0L51.37 21.04L55.11 21.04L55.11 12.29L56.54 12.29ZM77.11 0.65C76.68 0.24 76.1 0 75.49 0L69.85 0C69.24 0 68.66 0.24 68.23 0.66C67.81 1.07 67.57 1.63 67.57 2.22L67.57 2.22L67.57 18.82C67.58 19.4 67.82 19.97 68.25 20.38C68.68 20.8 69.27 21.04 69.88 21.04L75.49 21.04C76.1 21.03 76.68 20.79 77.11 20.38C77.54 19.96 77.79 19.4 77.8 18.82L77.8 2.22C77.79 1.63 77.55 1.07 77.11 0.65ZM93.82 0.65C93.39 0.24 92.81 0 92.2 0L84.28 0L84.28 21.04L92.2 21.04C92.81 21.03 93.39 20.79 93.82 20.38C94.25 19.96 94.49 19.4 94.5 18.82L94.5 2.22C94.5 1.63 94.25 1.07 93.82 0.65ZM104.92 0L101.18 0L101.18 21.04L104.92 21.04L104.92 0ZM121.57 21.04L121.57 0L117.81 0L117.81 8.62L115.07 0L111.36 0L111.36 21.04L115.08 21.04L115.08 11.85L117.83 21.04L121.57 21.04ZM137.59 9.34C137.16 8.92 136.58 8.69 135.97 8.68L131.8 8.68L131.8 3.6L134.51 3.6L134.51 7.32L138.28 6.48L138.28 2.22C138.28 1.63 138.03 1.07 137.6 0.65C137.17 0.24 136.59 0 135.98 0L130.36 0C130.06 0 129.76 0.05 129.48 0.17C129.2 0.28 128.94 0.44 128.73 0.65C128.52 0.86 128.35 1.1 128.23 1.37C128.12 1.64 128.06 1.93 128.06 2.22L128.06 10.07C128.06 10.37 128.12 10.65 128.24 10.92C128.35 11.19 128.52 11.44 128.74 11.64C128.95 11.85 129.21 12.01 129.49 12.12C129.77 12.23 130.07 12.29 130.37 12.29L134.51 12.29L134.51 17.41L131.8 17.41L131.8 13.65L128.06 14.49L128.06 18.82C128.07 19.4 128.31 19.96 128.74 20.38C129.17 20.8 129.75 21.03 130.36 21.04L135.97 21.04C136.58 21.03 137.16 20.79 137.59 20.38C138.02 19.96 138.26 19.4 138.28 18.82L138.28 10.91C138.27 10.32 138.03 9.76 137.59 9.34ZM155.46 21.04L151.96 10.49L155.49 0L151.68 0L148.81 8.68L148.5 8.68L148.5 0L144.76 0L144.76 21.04L148.5 21.04L148.5 12.3L148.85 12.3L151.65 20.92L151.68 21.04L155.46 21.04ZM165.32 0L161.58 0L161.58 21.04L165.32 21.04L165.32 0ZM21.68 3.6L24.39 3.6L24.39 8.68L21.68 8.68L21.68 3.6ZM38.39 3.6L41.1 3.6L41.1 17.4L38.39 17.4L38.39 3.6ZM55.1 3.6L57.81 3.6L57.81 8.68L55.1 8.68L55.1 3.6ZM71.31 3.6L74.02 3.6L74.02 17.4L71.31 17.4L71.31 3.6ZM88.02 3.6L90.73 3.6L90.73 17.4L88.02 17.4L88.02 3.6ZM2.89 7.72L0 10.51L2.89 13.31L5.78 10.51L2.89 7.72ZM181.06 7.72L178.17 10.51L181.07 13.31L183.96 10.51L181.06 7.72ZM21.68 12.29L24.39 12.29L24.39 17.4L21.68 17.4L21.68 12.29Z" fill="#DBB590" fill-opacity="1.000000" fill-rule="evenodd"/>
</svg>
