<svg width="367.000000" height="152.000000" viewBox="0 0 367 152" fill="none" xmlns="http://www.w3.org/2000/svg" xmlns:xlink="http://www.w3.org/1999/xlink">
	<desc>
			Created with Pixso.
	</desc>
	<defs>
		<clipPath id="clip14_499">
			<rect rx="0.000000" width="366.000000" height="151.000000" transform="translate(0.500000 0.500000)" fill="white" fill-opacity="0"/>
		</clipPath>
	</defs>
	<rect rx="0.000000" width="366.000000" height="151.000000" transform="translate(0.500000 0.500000)" fill="#FFFFFF" fill-opacity="0"/>
	<g clip-path="url(#clip14_499)">
		<g opacity="0.400000">
			<path d="M209.84 98.12L209.84 57.39L211.9 57.39L211.9 100.2L204.56 100.2L204.56 98.12L209.84 98.12ZM242.5 98.12L242.5 57.39L244.57 57.39L244.57 100.2L237.22 100.2L236.64 98.12L242.5 98.12ZM308.33 57.39L311.07 57.39L304.22 78.74L311.07 100.22L303.68 100.22L303.62 99.97L303.04 98.14L309 98.14L302.15 76.67L308.33 57.39ZM328.32 98.12L328.32 57.39L330.39 57.39L330.39 100.2L323.05 100.2L323.05 98.12L328.32 98.12ZM126.12 80.3C125.66 81.01 125.01 81.58 124.24 81.94L127.29 100.21L119.95 100.21L119.61 98.14L125.25 98.14L122.19 79.91C122.96 79.55 123.6 78.98 124.06 78.26C124.5 77.55 124.74 76.73 124.74 75.9C124.74 75.89 124.74 75.88 124.74 75.87L124.74 59.82C124.73 59.13 124.57 58.45 124.26 57.83C125.03 58.2 125.68 58.78 126.13 59.5C126.58 60.22 126.82 61.06 126.82 61.9L126.82 77.91C126.82 78.75 126.58 79.58 126.12 80.3ZM61.29 61.91L61.29 74.5C61.29 74.51 61.29 74.52 61.29 74.53C61.29 75.19 61.14 75.85 60.85 76.45C60.56 77.05 60.14 77.58 59.61 78C60.12 78.47 60.53 79.03 60.82 79.66C61.11 80.29 61.27 80.98 61.29 81.67L61.29 95.68C61.27 96.87 60.78 98.01 59.94 98.86C59.09 99.7 57.95 100.19 56.76 100.21L41.22 100.21L41.22 98.14L54.64 98.14C55.86 98.15 57.02 97.68 57.89 96.83C58.76 95.98 59.25 94.82 59.27 93.61L59.27 79.6C59.26 78.91 59.1 78.23 58.82 77.6C58.54 76.97 58.13 76.41 57.62 75.94C58.13 75.51 58.54 74.98 58.82 74.37C59.09 73.79 59.22 73.16 59.22 72.52C59.22 72.49 59.22 72.47 59.22 72.45L59.22 59.85C59.22 59.16 59.06 58.48 58.75 57.86C59.5 58.23 60.14 58.81 60.59 59.52C61.04 60.24 61.28 61.06 61.29 61.91ZM156.62 59.85C156.61 59.16 156.45 58.48 156.14 57.86C156.89 58.24 157.53 58.82 157.98 59.53C158.42 60.25 158.66 61.07 158.66 61.92L158.66 95.7C158.64 96.89 158.16 98.03 157.31 98.88C156.47 99.72 155.33 100.21 154.13 100.23L143.12 100.23C142.27 100.22 141.45 99.98 140.73 99.53C140.02 99.08 139.44 98.44 139.07 97.68C139.69 97.99 140.37 98.16 141.06 98.16L152.09 98.16C153.28 98.14 154.42 97.65 155.27 96.81C156.11 95.96 156.6 94.82 156.62 93.63L156.62 59.85ZM92.01 59.85C92.01 59.16 91.85 58.48 91.53 57.86C92.3 58.23 92.94 58.81 93.39 59.53C93.84 60.24 94.08 61.07 94.09 61.92L94.09 95.7C94.07 96.89 93.58 98.03 92.74 98.88C91.89 99.72 90.75 100.21 89.56 100.23L78.55 100.23C77.71 100.22 76.88 99.98 76.17 99.53C75.45 99.08 74.88 98.44 74.51 97.68C75.13 97.99 75.81 98.16 76.5 98.16L87.48 98.16C88.68 98.14 89.82 97.65 90.66 96.81C91.51 95.96 91.99 94.82 92.01 93.63L92.01 59.85ZM189.41 59.85C189.4 59.16 189.24 58.48 188.93 57.86C189.69 58.24 190.33 58.81 190.78 59.53C191.23 60.24 191.47 61.07 191.47 61.92L191.47 95.7C191.45 96.89 190.97 98.03 190.12 98.88C189.28 99.72 188.14 100.21 186.94 100.23L171.41 100.23L171.41 98.16L184.88 98.16C186.07 98.14 187.21 97.65 188.06 96.81C188.9 95.96 189.39 94.82 189.41 93.63L189.41 59.85ZM275.3 59.85C275.29 59.16 275.13 58.48 274.82 57.86C275.58 58.23 276.22 58.81 276.67 59.52C277.12 60.24 277.36 61.06 277.36 61.91L277.36 70.6L269.96 72.32L269.96 69.78L275.3 68.54L275.3 59.85ZM262.56 72.99L262.56 62.63L267.89 62.65L267.89 64.73L264.64 64.73L264.64 72.99L262.56 72.99ZM48.56 72.99L46.5 72.99L46.5 62.65L51.81 62.65L51.81 64.73L48.56 64.73L48.56 72.99ZM178.75 90.74L176.67 90.74L176.67 62.65L182 62.65L182 64.73L178.75 64.73L178.75 90.74ZM81.34 90.74L79.28 90.74L79.29 62.65L84.59 62.65L84.59 64.73L81.34 64.73L81.34 90.74ZM114.14 72.99L112.08 72.99L112.08 62.65L117.4 62.65L117.4 64.73L114.14 64.73L114.14 72.99ZM145.96 90.7L143.88 90.7L143.88 62.65L149.21 62.65L149.21 64.73L145.96 64.73L145.96 90.7ZM275.3 77.53C275.29 76.84 275.13 76.16 274.82 75.55C275.57 75.92 276.21 76.5 276.65 77.21C277.1 77.93 277.34 78.75 277.34 79.59L277.34 95.7C277.32 96.89 276.84 98.03 275.99 98.88C275.15 99.72 274.01 100.21 272.81 100.23L261.81 100.23C260.96 100.22 260.14 99.98 259.42 99.53C258.71 99.08 258.14 98.44 257.76 97.68C258.38 97.99 259.06 98.16 259.75 98.16L270.77 98.16C271.96 98.14 273.1 97.65 273.95 96.81C274.79 95.96 275.28 94.82 275.3 93.63L275.3 77.53ZM359.22 82.36L364.9 76.68L366.97 78.76L361.3 84.44L359.22 82.36ZM9.58 82.36L15.25 76.69L17.33 78.76L11.68 84.44L9.58 82.36ZM229.77 98.14L229.77 79.47L231.84 86.62L231.84 100.22L224.5 100.22L224.5 98.14L229.77 98.14ZM267.9 82.45L261.83 82.45C260.98 82.45 260.14 82.2 259.42 81.74C258.71 81.29 258.13 80.63 257.77 79.86C258.39 80.17 259.07 80.33 259.76 80.34L267.9 80.34L267.9 82.45ZM112.08 80.3L114.89 80.3L115.24 82.45L114.14 82.45L114.14 100.22L106.8 100.22L106.8 98.14L112.08 98.14L112.08 80.3ZM48.56 90.74L46.5 90.74L46.5 80.34L51.81 80.34L51.81 82.45L48.56 82.45L48.56 90.74ZM295.34 80.34L296.02 80.34L297.4 84.79L297.4 100.22L290.06 100.22L290.06 98.14L295.34 98.14L295.34 80.34ZM264.64 85.16L264.64 90.74L262.56 90.74L262.56 85.64L264.64 85.16Z" fill="#FFFFFF" fill-opacity="1.000000" fill-rule="evenodd"/>
		</g>
		<path d="M124.7 4.44C124.7 2.04 123.08 0 119.72 0C117.73 0 115.46 1.36 113.87 4.14L104.31 20.59C103.91 21.29 103.46 21.95 102.95 22.58C101.98 21.24 101.5 19.63 101.5 18.05C101.5 15.65 102.58 13.3 104.65 11.98L103.32 10.2C100.49 12 99.05 15.1 99.05 18.25C99.05 23.35 102.8 28.56 110.45 28.56C117.64 28.55 122.2 22.64 122.2 17.45C122.2 15.04 121.22 12.79 119.07 11.35C122.77 10.09 124.7 7.05 124.7 4.44ZM257.49 18.87L257.25 19.14C255.54 21.31 253.32 23.01 250.79 24.11C251.1 23.62 251.36 23.12 251.6 22.64C251.82 22.21 252.03 21.8 252.25 21.45L256.16 14.76C256.88 13.52 257.19 12.47 257.19 11.61C257.19 8.58 253.33 7.99 250.51 10.51L251.23 9.28L247.69 9.28L242.17 18.87L241.93 19.14C241.26 19.91 240.45 20.54 239.53 20.99C238.61 21.44 237.62 21.7 236.6 21.75L239.93 16.01C240.54 14.94 240.82 13.89 240.82 12.94C240.82 10.58 239.14 8.81 236.77 8.81C234.04 8.81 231.94 9.89 229.9 13.43L228.16 16.41L226.71 18.87L226.53 19.09C223.97 22.07 221.5 24.39 219.93 24.39C219.44 24.39 219.09 24.18 219.09 23.67C219.09 23.37 219.22 22.95 219.52 22.41L224.62 13.47C225.06 12.69 225.26 11.97 225.26 11.34C225.26 9.82 224.11 8.85 222.71 8.85C221.18 8.85 219.55 9.69 217.74 11.53L223.39 1.7L219.85 1.7L210.05 18.87L209.85 19.1C208.61 20.56 207.2 21.85 205.63 22.94C206.07 21.62 206.3 20.02 206.55 18.29C206.93 15.62 207.36 12.64 208.69 9.89L206.03 8.46C205.73 8.87 205.36 9.39 204.93 9.99C203.26 12.32 200.72 15.85 198.19 18.82L197.95 19.09C195.4 22.07 192.92 24.39 191.35 24.39C190.86 24.39 190.51 24.18 190.51 23.67C190.51 23.37 190.64 22.95 190.95 22.41L194.48 16.22C194.96 15.38 195.16 14.67 195.16 14.04C195.16 13.07 194.68 12.28 193.97 11.43L191.99 9.06C191.85 8.93 191.75 8.77 191.68 8.6C191.6 8.43 191.57 8.25 191.57 8.06C191.57 7.88 191.6 7.69 191.68 7.52C191.75 7.35 191.85 7.2 191.99 7.07L192.1 6.98L190.26 4.99C189.1 6.05 188.55 7.17 188.55 8.25C188.55 9.01 188.82 9.75 189.35 10.43L189.64 10.83L189.53 10.99C187.99 13.18 185.93 16.09 183.68 18.78L183.45 19.05C180.89 22.03 177.64 24.35 175.15 24.35C173.66 24.35 172.58 23.71 172.58 22.39C172.58 21.78 172.8 21.04 173.31 20.14L173.65 19.53C175.93 20.52 180.21 20.03 182.86 15.45L183.37 14.57C183.91 13.65 184.15 12.79 184.15 12.03C184.15 10.12 182.62 8.86 180.55 8.86C179.19 8.88 177.87 9.26 176.72 9.98C175.56 10.69 174.63 11.71 174.01 12.91L170.56 18.87L170.35 19.11C169.69 19.88 168.87 20.51 167.96 20.96C167.04 21.41 166.04 21.67 165.02 21.72L168.35 15.98C169.12 14.76 169.58 13.36 169.68 11.92C169.68 11.86 169.68 11.79 169.68 11.73C169.68 11.4 169.63 11.08 169.52 10.76C169.4 10.39 169.2 10.05 168.94 9.76C168.68 9.47 168.36 9.23 168.01 9.05C167.66 8.88 167.28 8.78 166.89 8.76L166.48 8.76C165.65 8.78 164.84 9.05 164.17 9.54L168.66 1.76L165.05 1.76L155.15 18.87L154.96 19.08C152.41 22.06 149.93 24.38 148.36 24.38C147.87 24.38 147.52 24.17 147.52 23.66C147.52 23.36 147.65 22.94 147.96 22.4L151.49 16.21C151.97 15.37 152.17 14.66 152.17 14.03C152.17 13.06 151.69 12.27 150.98 11.42L149 9.05C148.87 8.91 148.76 8.76 148.7 8.58C148.63 8.42 148.6 8.25 148.6 8.08C148.6 8.07 148.6 8.05 148.6 8.04C148.61 7.85 148.65 7.67 148.73 7.5C148.81 7.33 148.92 7.18 149.06 7.06L149.21 6.95L147.37 4.96C146.21 6.02 145.66 7.14 145.66 8.22C145.66 8.98 145.93 9.72 146.46 10.4L146.76 10.8C145.2 13.01 143.09 16 140.8 18.75L140.56 19.02C138.01 22 135.54 24.32 133.97 24.32C133.48 24.32 133.13 24.11 133.13 23.6C133.13 23.3 133.25 22.88 133.56 22.34L139.27 12.34L137.29 12.34C137.22 11.41 136.79 10.53 136.1 9.9C135.4 9.26 134.49 8.92 133.55 8.94C131.64 8.94 129 10.44 127.5 13.02L122.54 21.58C122.08 22.39 121.86 23.17 121.86 23.87C121.86 25.45 122.97 26.61 124.95 26.61C126.38 26.61 128.15 25.7 129.85 24.3C130.02 25.66 131.11 26.61 132.91 26.61C135.83 26.61 139.19 23.48 142.11 20.08C143.68 18.25 144.89 16.62 147.31 13.37L147.96 12.5L148.43 13.08C148.67 13.35 148.81 13.68 148.85 14.04C148.85 14.1 148.86 14.16 148.86 14.22C148.86 14.52 148.78 14.81 148.64 15.07L144.91 21.55C144.45 22.36 144.23 23.14 144.23 23.84C144.23 25.42 145.34 26.58 147.32 26.58C149.37 26.58 151.63 25.04 153.82 22.95C153.82 25.37 155.61 26.73 157.9 26.73C159.07 26.67 160.22 26.34 161.25 25.77C162.28 25.2 163.17 24.41 163.86 23.45C164.12 23.47 164.38 23.47 164.64 23.45C166.29 23.37 167.9 22.89 169.33 22.06C169.32 22.18 169.32 22.3 169.32 22.41C169.32 24.79 171.14 26.55 174.12 26.55C178.09 26.55 182.07 23.42 185.05 20.02C186.61 18.19 187.82 16.56 190.24 13.31L190.89 12.44L191.36 13.02C191.6 13.29 191.74 13.62 191.78 13.98C191.78 14.04 191.79 14.1 191.79 14.16C191.79 14.46 191.71 14.75 191.57 15.01L187.84 21.49C187.38 22.3 187.16 23.08 187.16 23.78C187.16 25.37 188.27 26.52 190.25 26.52C193.1 26.52 196.54 23.39 199.46 19.99C201.12 18.06 202.64 16.01 203.83 14.42C204.06 14.1 204.28 13.81 204.48 13.54C204.02 14.78 203.79 16.35 203.57 17.88C203.13 20.91 202.72 23.8 200.51 23.8C200.14 23.76 199.79 23.62 199.49 23.39C199.2 23.16 198.97 22.86 198.84 22.51L196.69 23.66C196.91 24.5 197.42 25.25 198.12 25.76C198.83 26.28 199.69 26.55 200.56 26.51C200.89 26.51 201.23 26.51 201.55 26.44L201.65 26.44C203.63 26.1 205.49 25.3 207.09 24.1L205.87 26.2L209.44 26.2L214.8 16.85C219.16 11.38 221.57 10.85 221.57 12.21C221.57 12.55 221.43 13 221.12 13.53L216.53 21.47C216.07 22.28 215.85 23.06 215.85 23.76C215.85 25.34 216.97 26.5 218.95 26.5C221 26.5 223.27 24.95 225.45 22.85C225.45 27.36 231.7 28.24 235.53 23.4L236.32 23.4C237.63 23.35 238.92 23.03 240.1 22.47L233.67 33.63L237.23 33.63L247.8 15.24C251.21 10.64 253.5 11.43 253.5 12.76C253.5 12.98 253.44 13.22 253.31 13.45L247.97 22.7C247.85 23.03 247.59 23.31 247.26 23.46C246.94 23.61 246.56 23.63 246.22 23.5C246.04 23.43 245.87 23.33 245.73 23.19C245.59 23.05 245.49 22.88 245.42 22.7L243.43 23.69C243.66 24.53 244.17 25.28 244.87 25.79C245.57 26.31 246.43 26.57 247.31 26.54L247.51 26.54C252.65 26.44 256.01 23.38 258.9 20.01C258.75 19.74 258.55 19.49 258.31 19.29C258.07 19.1 257.79 18.95 257.49 18.87ZM114.14 9.72L116.99 4.82C119.07 1.25 121.61 2.23 121.61 4.48C121.61 5.03 121.45 5.66 121.11 6.31C119.75 8.87 117.74 9.65 114.14 9.72ZM162.02 20.86C161.53 20.49 161.14 20 160.88 19.44C160.64 18.93 160.52 18.38 160.52 17.82C160.52 17.77 160.52 17.71 160.52 17.66C160.52 15.15 162.96 11.03 164.97 11.03C165.15 11.03 165.32 11.07 165.49 11.14C165.65 11.21 165.8 11.31 165.92 11.44C166.05 11.56 166.15 11.71 166.21 11.88C166.28 12.04 166.31 12.21 166.31 12.38L166.31 12.39C166.31 12.42 166.31 12.45 166.31 12.48C166.31 12.51 166.31 12.53 166.31 12.56C166.27 13.31 166.04 14.04 165.64 14.67L162.02 20.86ZM234.61 19.09L234.43 19.09C234.16 19.09 233.89 19.15 233.63 19.25C233.38 19.36 233.15 19.51 232.96 19.71C232.77 19.9 232.61 20.13 232.51 20.39C232.41 20.64 232.36 20.91 232.36 21.18L232.36 21.19C232.36 21.61 232.47 22.02 232.69 22.38L232.69 22.45C231.36 24.73 228.49 24.84 228.49 22.9C228.49 22.42 228.67 21.82 229.09 21.09L233.44 13.53C235.37 10.25 237.85 10.53 237.85 12.54C237.85 13.11 237.65 13.83 237.17 14.65L234.61 19.09ZM181.2 12.75C181.2 13.24 181.01 13.87 180.57 14.65L180.06 15.53C178.36 18.42 176.09 18.35 174.75 17.88L177.03 13.9C178.6 11.15 181.2 10.92 181.2 12.75ZM131.72 19.48C129.58 22.84 127.47 24.44 126.01 24.44C125.52 24.44 125.17 24.23 125.17 23.72C125.17 23.42 125.3 23 125.61 22.46L130.57 13.85C132.14 11.14 134.97 11.24 134.97 13.14C134.97 13.55 134.84 14.04 134.55 14.6L131.72 19.48ZM110.34 25.83C108.56 25.87 106.8 25.45 105.24 24.6C105.9 23.82 106.49 22.98 107.01 22.09L112.97 11.79L113.96 11.89C117.26 12.58 118.71 14.96 118.71 17.56C118.71 21.44 115.47 25.83 110.34 25.83ZM158.34 24.31C157.99 24.32 157.66 24.2 157.41 23.98C157.15 23.76 156.99 23.44 156.95 23.1L156.95 22.94C157 22.29 157.22 21.66 157.57 21.11L158.76 18.87C158.85 19.61 159.1 20.31 159.49 20.95C159.88 21.58 160.39 22.12 161.01 22.54C160.74 23.03 160.36 23.44 159.89 23.74C159.42 24.05 158.88 24.23 158.33 24.27L158.34 24.31ZM86.74 52.72C85.89 51.87 84.75 51.39 83.55 51.38L72.52 51.38C71.93 51.38 71.34 51.49 70.79 51.72C70.24 51.95 69.74 52.28 69.32 52.7C68.9 53.12 68.56 53.62 68.34 54.17C68.11 54.72 67.99 55.31 67.99 55.9L67.99 55.91L67.99 89.68C68 90.88 68.48 92.03 69.33 92.88C70.18 93.72 71.32 94.2 72.52 94.22L83.55 94.22C84.74 94.19 85.88 93.71 86.73 92.87C87.57 92.02 88.06 90.88 88.08 89.68L88.08 55.91C88.07 54.71 87.59 53.56 86.74 52.72ZM54.86 70.46C55.14 69.86 55.29 69.21 55.29 68.56L55.29 68.54L55.29 55.91C55.28 54.71 54.8 53.56 53.95 52.72C53.1 51.87 51.96 51.39 50.76 51.38L35.22 51.38L35.22 94.21L50.77 94.21C51.96 94.18 53.1 93.7 53.95 92.86C54.79 92.01 55.28 90.87 55.3 89.68L55.3 75.67C55.28 74.98 55.13 74.3 54.85 73.67C54.56 73.04 54.16 72.47 53.65 72C54.16 71.58 54.58 71.06 54.86 70.46ZM110.97 76.4L113.95 94.21L121.27 94.21L118.22 75.98C118.99 75.62 119.65 75.06 120.11 74.34C120.58 73.63 120.83 72.79 120.83 71.94L120.83 55.91C120.83 55.9 120.83 55.89 120.83 55.88C120.83 55.3 120.72 54.72 120.5 54.18C120.27 53.64 119.95 53.14 119.53 52.72C119.12 52.3 118.62 51.96 118.08 51.73C117.53 51.5 116.95 51.38 116.36 51.38L100.82 51.38L100.82 94.21L108.16 94.21L108.16 76.4L110.97 76.4ZM151.35 52.72C150.5 51.87 149.35 51.39 148.15 51.38L137.09 51.38C135.9 51.39 134.76 51.87 133.92 52.72C133.09 53.57 132.62 54.71 132.62 55.9L132.62 55.91L132.62 89.68C132.63 90.88 133.11 92.03 133.96 92.88C134.8 93.72 135.95 94.2 137.15 94.22L148.15 94.22C149.35 94.19 150.49 93.71 151.33 92.87C152.18 92.02 152.66 90.88 152.68 89.68L152.68 55.91C152.67 54.71 152.19 53.56 151.35 52.72ZM184.13 52.72C183.29 51.87 182.14 51.39 180.94 51.38L165.41 51.38L165.41 94.22L180.94 94.22C182.14 94.19 183.28 93.71 184.12 92.87C184.97 92.02 185.45 90.88 185.47 89.68L185.47 55.91C185.46 54.71 184.98 53.56 184.13 52.72ZM205.9 51.38L198.56 51.38L198.56 94.21L205.9 94.21L205.9 51.38ZM238.57 94.21L238.57 51.38L231.2 51.38L231.2 68.93L225.82 51.38L218.54 51.38L218.54 94.21L225.85 94.21L225.85 75.5L231.23 94.21L238.57 94.21ZM270.03 70.4C269.18 69.55 268.03 69.07 266.83 69.06L258.66 69.06L258.66 58.72L263.98 58.72L263.98 66.29L271.38 64.57L271.38 55.91C271.37 54.71 270.89 53.56 270.04 52.72C269.2 51.87 268.05 51.39 266.85 51.38L255.83 51.38C255.23 51.38 254.65 51.5 254.1 51.72C253.55 51.95 253.05 52.29 252.64 52.71C252.22 53.13 251.88 53.63 251.66 54.18C251.43 54.72 251.32 55.31 251.32 55.9L251.32 55.91L251.32 71.89C251.32 72.49 251.44 73.07 251.67 73.62C251.89 74.17 252.23 74.67 252.65 75.09C253.07 75.5 253.57 75.84 254.12 76.06C254.67 76.29 255.25 76.4 255.85 76.4L263.98 76.4L263.98 86.81L258.66 86.81L258.66 79.16L251.32 80.87L251.32 89.68C251.33 90.88 251.81 92.02 252.65 92.87C253.49 93.72 254.63 94.2 255.83 94.22L266.83 94.22C268.03 94.19 269.17 93.71 270.01 92.87C270.86 92.02 271.34 90.88 271.36 89.68L271.36 73.59C271.35 72.39 270.87 71.25 270.03 70.4ZM305.08 94.22L298.22 72.74L305.14 51.38L297.68 51.38L292.04 69.06L291.44 69.06L291.44 51.38L284.1 51.38L284.1 94.21L291.44 94.21L291.44 76.41L292.11 76.41L297.62 93.97L297.68 94.22L305.08 94.22ZM324.44 51.38L317.09 51.38L317.09 94.21L324.44 94.21L324.44 51.38ZM42.56 58.72L47.89 58.72L47.89 69.06L42.56 69.06L42.56 58.72ZM75.35 58.72L80.67 58.72L80.68 86.8L75.35 86.8L75.35 58.72ZM108.14 58.72L113.47 58.72L113.47 69.06L108.14 69.06L108.14 58.72ZM139.95 58.72L145.27 58.72L145.27 86.8L139.95 86.8L139.95 58.72ZM172.75 58.72L178.07 58.72L178.07 86.8L172.75 86.8L172.75 58.72ZM5.68 67.09L0.01 72.78L5.68 78.48L11.36 72.78L5.68 67.09ZM355.33 67.1L349.66 72.78L355.35 78.48L361.01 72.78L355.33 67.1ZM42.56 76.4L47.89 76.4L47.89 86.8L42.56 86.8L42.56 76.4ZM168.19 123.04L166.79 123.04C159.24 123.71 154.15 127.17 149.06 130.65C147.27 131.87 145.48 133.08 143.58 134.18C142.36 134.92 141.08 135.56 139.74 136.07C138.24 136.74 136.62 137.07 134.98 137.06C134.26 136.97 133.57 136.69 132.98 136.25C132.4 135.81 131.93 135.23 131.64 134.56C131.3 133.81 131.14 133.02 131.14 132.25C131.14 129.47 133.15 126.89 136.14 127C136.67 127.01 137.19 127.12 137.67 127.33C138.15 127.54 138.58 127.84 138.95 128.22C138.99 128.26 139.04 128.31 139.09 128.37C139.32 128.61 139.61 128.92 140.11 128.83C140.25 128.67 140.31 128.49 140.31 128.31C140.31 127.94 140.07 127.55 139.87 127.24C139.85 127.2 139.82 127.16 139.8 127.12C139.2 126.07 138.3 125.22 137.21 124.69C136.12 124.16 134.9 123.97 133.7 124.14C128.45 124.52 123.88 128.04 123.88 135.15C123.88 135.63 123.9 136.13 123.95 136.64C125.72 148.02 135.94 150.93 148.01 152L151.85 152C162.35 151.54 172.41 147.71 180.56 141.07C188.63 147.73 198.67 151.57 209.13 152L213.04 152C225.03 151 235.14 148.02 237.04 136.96C237.11 136.4 237.14 135.86 237.14 135.33C237.14 128.82 232.47 124.6 227.3 124.23C226.11 124.06 224.9 124.25 223.83 124.79C222.75 125.32 221.86 126.16 221.27 127.21L221.22 127.28C221.01 127.56 220.71 127.96 220.71 128.34C220.71 128.52 220.78 128.69 220.96 128.85C221.46 129.02 221.74 128.69 221.96 128.42C221.98 128.4 222 128.37 222.02 128.35C222.06 128.31 222.09 128.27 222.13 128.24C222.47 127.91 222.86 127.65 223.29 127.45C226.55 126.02 229.47 128.61 229.8 131.59C229.83 131.83 229.84 132.07 229.84 132.3C229.84 134.78 228.34 136.89 226.09 137.13C224.45 137.16 222.82 136.82 221.33 136.14C217.61 134.72 214.5 132.55 211.4 130.39C206.49 126.96 201.58 123.53 194.21 123.04L192.87 123.04C187.45 123.29 183.22 124.74 180.5 127.73C177.81 124.75 173.58 123.31 168.19 123.04Z" fill="#FFFFFF" fill-opacity="1.000000" fill-rule="evenodd"/>
	</g>
</svg>
